****Date.Night.2010.DvDRiP.XViD.Optional MultiSub.Zen_Bud.avi****

Format                           : AVI
File size                        : 1.37 GiB
Duration                         : 1h 24mn
Overall bit rate                 : 2 328 Kbps

Video

Format                           : MPEG-4 Visual
Codec ID/Hint                    : XviD
Duration                         : 1h 24mn
Bit rate                         : 1 869 Kbps
Width                            : 718 pixels
Height                           : 436 pixels
Display aspect ratio             : 2.35:1
Stream size                      : 1.10 GiB (80%)
Writing library                  : XviD 1.1.2 (UTC 2006-11-01)

Audio

Format                           : AC-3
Duration                         : 1h 24mn
Bit rate                         : 448 Kbps
Channel(s)                       : 6 channels
Channel positions                : Front: L C R, Side: L R, LFE
Sampling rate                    : 48.0 KHz
Stream size                      : 270 MiB (19%)

***** Text: English Danish Finnish Norwegian Swedish *****

